Coordinates
version=1
nRows=16
nColumns=40
inDegrees=yes

Units are S.I. units (second, meters, Newtons, ...)
Angles are in degrees.

endheader
time	pelvis_tilt	pelvis_list	pelvis_rotation	pelvis_tx	pelvis_ty	pelvis_tz	hip_flexion_r	hip_adduction_r	hip_rotation_r	knee_angle_r	knee_angle_r_beta	ankle_angle_r	subtalar_angle_r	mtp_angle_r	hip_flexion_l	hip_adduction_l	hip_rotation_l	knee_angle_l	knee_angle_l_beta	ankle_angle_l	subtalar_angle_l	mtp_angle_l	lumbar_extension	lumbar_bending	lumbar_rotation	arm_flex_r	arm_add_r	arm_rot_r	elbow_flex_r	pro_sup_r	wrist_flex_r	wrist_dev_r	arm_flex_l	arm_add_l	arm_rot_l	elbow_flex_l	pro_sup_l	wrist_flex_l	wrist_dev_l
     58.80828571	     -2.86860277	     -4.40251285	      5.39842152	      0.92288779	      0.91342645	      0.55634659	     15.52908112	      5.90162112	     -9.85706092	     28.88407923	     28.88407923	     17.58110441	    -15.00828611	      0.96887073	     33.57039563	    -12.67168096	      3.05925665	     62.14005336	     62.14005336	     12.54206130	    -19.51327009	     21.41462677	    -11.75715550	      4.83140717	     -0.52813417	      9.66154285	    -13.63871301	    -10.64765355	     39.67496677	     45.95559503	      0.00000000	      0.00000000	     10.97801419	     -8.31875717	     -1.43630112	     30.45787059	     46.22617211	      0.00000000	      0.00000000
     58.82657143	     -3.01529349	     -4.37671321	      6.05488388	      0.92132916	      0.91356221	      0.55654715	     15.24141685	      5.87480082	    -10.27365279	     28.54642635	     28.54642635	     17.70548969	    -15.15083495	      1.11921557	     34.29684052	    -12.20377688	      2.99317701	     59.12181957	     59.12181957	     13.20187228	    -19.49272832	     21.28290952	    -11.76464176	      4.64898892	     -0.86783079	     11.97411691	    -13.53809556	    -10.61273672	     42.00080805	     45.87628164	      0.00000000	      0.00000000	      8.76397320	     -7.97380057	     -0.95310098	     28.47971863	     46.11608251	      0.00000000	      0.00000000
     58.84485714	     -3.29988469	     -4.32162271	      6.61902241	      0.91968752	      0.91392355	      0.55656101	     15.00005330	      5.78059600	    -10.73643811	     28.03489217	     28.03489217	     17.79499608	    -15.03384026	      1.23970423	     34.85875240	    -11.61316242	      2.92187385	     55.50106180	     55.50106180	     13.04832376	    -19.43252659	     19.62977533	    -11.67989709	      4.46926108	     -0.35603932	     12.89886966	    -14.26360751	     -9.77600452	     47.08628621	     45.64329000	      0.00000000	      0.00000000	      7.27858965	     -7.48925186	      0.66968730	     25.76355717	     45.81847181	      0.00000000	      0.00000000
     58.86314286	     -3.60909707	     -4.16470639	      7.12296545	      0.91802743	      0.91481151	      0.55633664	     14.61969725	      5.60365868	    -11.08989614	     27.23065648	     27.23065648	     17.76229121	    -14.87128411	      1.35813510	     35.17222216	    -10.72787400	      3.08418554	     51.48583226	     51.48583226	     12.99607143	    -19.29635434	     19.55862032	    -11.53618021	      4.13312112	     -0.32888035	     15.29945755	    -14.36698315	     -9.92462786	     49.11780499	     45.58901604	      0.00000000	      0.00000000	      5.05318105	     -7.20410284	      0.97833725	     24.65119380	     45.72427407	      0.00000000	      0.00000000
     58.88142857	     -3.96549049	     -4.09760230	      7.57208172	      0.91633916	      0.91568486	      0.55593810	     14.24688622	      5.45472932	    -11.66396525	     26.34244408	     26.34244408	     17.57514356	    -14.39422226	      0.84385795	     35.23951199	     -9.94864082	      3.30285296	     46.96698017	     46.96698017	     11.34679656	    -19.11027277	     15.63267585	    -11.45531348	      3.98063064	     -0.11129886	     16.68888411	    -15.00898506	     -9.51685831	     54.58239692	     45.38830727	      0.00000000	      0.00000000	      2.67525680	     -7.09818923	      2.66315815	     24.27759546	     45.35127451	      0.00000000	      0.00000000
     58.89971429	     -4.40960733	     -3.92507944	      7.93354600	      0.91468539	      0.91680428	      0.55534975	     13.87229301	      5.23559261	    -12.01229448	     25.30725851	     25.30725851	     17.45464966	    -14.00098498	      0.92798302	     35.24234555	     -8.93473274	      3.83388066	     42.47548663	     42.47548663	     10.79765032	    -18.65251074	     15.59201957	    -11.17611924	      3.65769738	     -0.05080965	     19.28281774	    -15.18942180	     -9.72566697	     56.78009885	     45.33416411	      0.00000000	      0.00000000	      0.49472936	     -6.91588601	      2.99955289	     23.44687072	     45.24858994	      0.00000000	      0.00000000
     58.91800000	     -4.78317363	     -3.90277688	      8.26524908	      0.91326960	      0.91771970	      0.55475029	     13.38514446	      5.14289737	    -12.60096978	     24.18502043	     24.18502043	     17.01522168	    -13.33438714	     -0.20469072	     34.86039581	     -8.31428820	      4.15096492	     37.52679373	     37.52679373	      7.98739597	    -18.04522715	      9.41909143	    -11.01828353	      3.55826825	      0.31216246	     21.01540768	    -15.75331535	     -9.85851442	     61.89447457	     45.23410038	      0.00000000	      0.00000000	     -2.12208983	     -7.54438635	      8.65362049	     24.50632888	     44.22000290	      0.00000000	      0.00000000
     58.93628571	     -5.16376704	     -3.81670452	      8.53619022	      0.91194320	      0.91862333	      0.55392585	     12.89726031	      4.99262768	    -13.09688159	     23.11494451	     23.11494451	     16.91067496	    -12.54904499	     -0.39103739	     34.55727856	     -7.63819385	      4.57619136	     33.14313826	     33.14313826	      7.11785547	    -16.56181602	      8.15779746	    -10.83969575	      3.36573880	      0.54042106	     23.14205150	    -16.39500843	     -9.66773932	     66.00041090	     45.11771882	      0.00000000	      0.00000000	     -4.67876459	     -7.63791223	      9.46605119	     25.43578218	     44.07433061	      0.00000000	      0.00000000
     58.95457143	     -5.56971280	     -3.73889386	      8.73421290	      0.91079467	      0.91942612	      0.55315601	     12.43906223	      4.90727521	    -13.36998736	     22.04982545	     22.04982545	     16.83797947	    -12.00586000	     -0.32406347	     34.26382719	     -7.13441649	      4.75776688	     29.13798298	     29.13798298	      6.96527645	    -14.26318370	      8.27274279	    -10.52313119	      3.13244762	      0.69544076	     25.89133473	    -16.62147645	     -9.84222291	     68.24628758	     45.06445414	      0.00000000	      0.00000000	     -6.63439559	     -7.58676935	      9.70846806	     25.01342720	     44.00756874	      0.00000000	      0.00000000
     58.97285714	     -5.83871170	     -3.81799467	      8.96883235	      0.90984064	      0.91995104	      0.55219886	     11.84431707	      4.94815801	    -13.94196400	     20.99950521	     20.99950521	     16.77589043	    -11.03843613	     -0.54077324	     33.97091253	     -6.90968348	      4.69845127	     25.69843534	     25.69843534	      6.80498625	    -11.52613888	      7.51032316	    -10.39881736	      3.18068724	      0.60051272	     28.62465745	    -16.82087527	     -9.70042243	     71.91923598	     44.95848169	      0.00000000	      0.00000000	     -8.84862878	     -7.58209868	     10.12813942	     25.57698685	     43.90626250	      0.00000000	      0.00000000
     58.99114286	     -6.14956376	     -3.84294454	      9.12929410	      0.90912791	      0.92011410	      0.55118547	     11.35753392	      4.95415043	    -14.28150811	     20.08797983	     20.08797983	     16.53081999	    -10.51381572	     -1.45668427	     33.56130633	     -6.68502072	      4.44869928	     22.38988637	     22.38988637	      5.89382600	     -9.19359728	      5.08644914	    -10.17048164	      3.11752194	      1.18097032	     30.75366349	    -17.64336087	     -9.65236102	     75.59934714	     44.96608088	      0.00000000	      0.00000000	    -11.18875387	     -8.60821405	     14.98263744	     28.04239830	     43.40377917	      0.00000000	      0.00000000
     59.00942857	     -6.43738127	     -3.83656483	      9.29902200	      0.90850334	      0.92020748	      0.54994819	     10.91522693	      4.92364850	    -14.50733348	     19.35168535	     19.35168535	     16.60063555	    -10.04185827	     -1.40607556	     33.22673002	     -6.39763864	      4.23562505	     19.78714578	     19.78714578	      6.02825725	     -6.89324537	      5.30933593	     -9.93258794	      3.02298334	      1.32029090	     33.56432141	    -17.87051641	     -9.69505245	     77.74268190	     44.91515747	      0.00000000	      0.00000000	    -12.70640092	     -8.57214157	     15.12379666	     27.92419090	     43.37978137	      0.00000000	      0.00000000
     59.02771429	     -6.67304225	     -3.96052317	      9.47906320	      0.90814298	      0.91990091	      0.54857228	     10.46646351	      4.99187586	    -14.94897920	     18.72299472	     18.72299472	     16.77805058	     -9.31665487	     -1.50414832	     33.10389912	     -6.33958764	      3.55796496	     18.06059814	     18.06059814	      6.26848549	     -4.13920979	      4.82876376	     -9.70817475	      3.11224181	      1.38881435	     36.23881736	    -18.22911449	     -9.30853979	     80.53579546	     44.84126568	      0.00000000	      0.00000000	    -14.39249130	     -8.66720327	     15.34917223	     28.94732434	     43.37342136	      0.00000000	      0.00000000
     59.04600000	     -6.88743024	     -3.95921407	      9.60296141	      0.90793011	      0.91959626	      0.54705474	     10.08294965	      4.94567062	    -15.06279275	     18.30442987	     18.30442987	     16.93616269	     -9.01382436	     -1.52195553	     32.72833270	     -6.08766139	      3.23789573	     16.42569227	     16.42569227	      6.22839186	     -2.38411606	      4.67896272	     -9.50895685	      3.00640609	      1.56826562	     38.94079399	    -18.43512431	     -9.29902082	     82.19326716	     44.80632490	      0.00000000	      0.00000000	    -15.58203358	     -8.72438559	     15.53620820	     29.05653934	     43.35094148	      0.00000000	      0.00000000
     59.06428571	     -7.05017871	     -4.01070997	      9.74771037	      0.90799341	      0.91907656	      0.54530208	      9.68151878	      4.92710615	    -15.27317521	     17.99492233	     17.99492233	     17.18696070	     -8.65216333	     -1.58266598	     32.42239232	     -5.91497284	      2.77599961	     15.38352162	     15.38352162	      6.09908453	     -0.59442124	      4.10884825	     -9.32565828	      3.01055308	      1.64218937	     41.56972323	    -18.51419985	     -9.11581362	     83.81054070	     44.76764844	      0.00000000	      0.00000000	    -16.64024076	     -8.75208143	     15.75558115	     29.36686081	     43.32698414	      0.00000000	      0.00000000
     59.08257143	     -7.20528191	     -4.12765527	      9.87076182	      0.90831164	      0.91825087	      0.54335965	      9.33674970	      4.95723709	    -15.42797371	     17.82352157	     17.82352157	     17.50061100	     -8.30555868	     -1.50471933	     32.13483882	     -5.81672918	      2.31505554	     14.64713140	     14.64713140	      5.05619959	      0.91724526	      1.34523989	     -9.08068322	      3.08581541	      1.59292918	     44.20060994	    -18.72278731	     -8.40307085	     84.81969045	     44.77798174	      0.00000000	      0.00000000	    -17.98573726	     -9.15669411	     16.87211917	     31.10118007	     43.31353067	      0.00000000	      0.00000000
